<svg version="1.1" id="Layer_1" xmlns="http://www.w3.org/2000/svg" xmlns:xlink="http://www.w3.org/1999/xlink" x="0px" y="0px"
	 width="100%" viewBox="0 0 736 544" enable-background="new 0 0 736 544" xml:space="preserve">
<path fill="#000000" opacity="1.000000" stroke="none" 
	d="
M378.223785,524.150024 
	C368.024841,524.538574 358.751556,527.511780 349.271912,529.296082 
	C334.653412,532.047546 320.121094,531.628296 305.569092,529.041016 
	C286.888702,525.719788 268.007294,523.421448 249.744446,517.976074 
	C246.372040,516.970520 243.089325,515.810364 240.086823,513.961365 
	C238.510834,512.990906 236.835754,511.883911 236.423019,510.024231 
	C234.527206,501.481995 227.801620,497.521973 220.785355,494.630035 
	C209.438339,489.953003 199.245453,483.415649 189.225922,476.594940 
	C169.617889,463.247009 160.980148,443.945007 158.854263,420.773651 
	C157.137192,402.058502 153.694931,383.527832 153.789536,364.609894 
	C153.826172,357.286560 149.610596,351.435913 144.015778,346.720581 
	C136.299561,340.217285 130.056900,332.435638 125.403542,323.540527 
	C121.279152,315.656555 120.975273,307.155975 123.982849,298.835022 
	C126.687569,291.351990 128.993103,283.648376 133.506973,276.927826 
	C139.751541,267.630493 140.163818,256.437408 143.318069,246.148483 
	C149.726532,225.244568 151.452087,203.361328 155.880463,182.024185 
	C159.342758,165.341827 166.377533,150.948624 176.647537,137.296799 
	C186.702194,123.931229 199.991287,115.180672 213.426865,106.395103 
	C221.868423,100.875130 231.021439,96.382523 240.084839,91.892410 
	C248.057236,87.942787 255.227890,83.420258 260.890411,76.216560 
	C265.254852,70.664253 271.763489,67.090294 278.854767,66.202461 
	C303.600891,63.104229 326.593689,52.696384 351.268402,49.290482 
	C363.951904,47.539757 376.328491,43.938225 389.118011,42.550014 
	C395.207947,41.889000 401.100220,42.147022 406.925690,43.772110 
	C415.926880,46.283104 425.054962,48.126324 434.281860,49.554253 
	C441.407867,50.657043 448.157990,52.839340 454.610779,56.178471 
	C461.401001,59.692177 467.994415,63.623497 475.265015,66.199722 
	C479.704559,67.772820 483.691772,70.410950 486.912933,73.780006 
	C499.146210,86.574974 514.046692,95.833542 528.830688,105.100784 
	C544.135437,114.694496 556.308655,127.280548 566.096252,142.085617 
	C573.228638,152.874313 581.824890,162.287354 590.396912,171.788635 
	C595.040222,176.935364 598.618103,182.626923 601.236938,189.021805 
	C603.317139,194.101395 605.785461,199.021133 607.905640,204.085434 
	C611.430725,212.505569 610.172607,221.135223 608.491394,229.661453 
	C606.429932,240.116226 603.814697,250.463364 601.826416,260.930634 
	C599.345032,273.994232 601.274353,286.910339 604.811584,299.470398 
	C611.852051,324.470154 609.580688,348.609283 598.974731,372.047485 
	C597.021667,376.363586 594.000122,380.317566 590.924255,383.978851 
	C584.575073,391.536438 581.395874,400.624786 577.455994,409.426178 
	C571.441406,422.862305 565.555359,436.390900 554.773010,447.096771 
	C550.960999,450.881744 548.177917,455.785980 545.306091,460.415527 
	C540.909729,467.502838 535.011963,473.076233 528.310669,477.792480 
	C515.264038,486.974518 501.789032,495.499481 487.885223,503.341644 
	C483.135590,506.020569 480.479523,510.458862 478.755371,515.425537 
	C476.160767,522.899597 471.144592,527.649536 463.666229,530.165710 
	C460.720520,531.156799 458.122467,533.136414 455.232025,534.345215 
	C447.924042,537.401550 440.705139,535.065002 433.696503,533.215454 
	C427.708893,531.635315 421.736969,530.373413 415.591888,529.720581 
	C408.800201,528.998962 402.063660,527.959717 395.493805,525.939575 
	C390.036255,524.261475 384.399323,523.728149 378.223785,524.150024 
M284.853699,341.674683 
	C290.207733,346.426605 295.827637,344.143555 301.255890,342.047729 
	C306.387360,340.066467 311.382477,337.751495 316.915497,337.078735 
	C328.554016,335.663544 336.832977,342.688446 337.388824,354.220856 
	C337.613800,358.888123 337.917938,364.057129 342.997437,366.119598 
	C348.199951,368.232025 351.187042,363.932800 354.338043,360.781128 
	C365.065613,350.051392 375.223846,350.159729 385.801392,361.052948 
	C388.782562,364.123016 391.651611,368.152130 396.746552,366.126678 
	C401.705658,364.155182 401.808624,359.163483 402.615997,354.774933 
	C402.705231,354.289856 402.632782,353.776794 402.656433,353.277679 
	C403.051483,344.937958 407.815643,339.307709 415.984741,337.451263 
	C421.599457,336.175293 426.882355,337.392059 432.091553,339.417633 
	C435.812531,340.864563 439.489502,342.499847 443.319794,343.574677 
	C451.044800,345.742371 455.682831,343.278778 458.388336,335.598755 
	C460.381714,329.940277 461.268616,324.023193 462.050354,318.061615 
	C463.625061,306.053253 458.998444,298.555298 447.423950,295.040955 
	C436.373657,291.685760 424.854889,291.128998 413.540314,289.379761 
	C404.598572,287.997314 396.029541,286.605286 392.461456,276.393646 
	C390.463867,270.676636 388.995392,264.870544 388.876221,258.892334 
	C388.552277,242.640640 400.628113,233.475296 416.100525,238.007843 
	C421.584595,239.614349 426.549561,242.349991 431.254425,245.547577 
	C438.290802,250.329742 444.723541,255.888306 451.358368,261.189972 
	C453.220886,262.678253 455.470093,264.750885 458.067719,262.896118 
	C460.424744,261.213074 460.891937,258.381561 460.437714,255.666458 
	C455.483154,226.050842 440.522888,204.544495 410.975067,194.945343 
	C384.197266,186.246109 357.373718,186.152237 330.456207,194.367050 
	C300.304779,203.568802 284.950012,225.140198 279.518005,255.038849 
	C279.001068,257.884277 279.051605,260.964020 281.772583,262.743073 
	C284.817505,264.733887 287.166565,262.286346 289.323914,260.624237 
	C293.673340,257.273224 297.779694,253.608505 302.092773,250.208237 
	C309.601135,244.288849 317.553009,239.171204 327.110718,237.151932 
	C337.137421,235.033569 344.190765,238.859421 348.545959,248.146881 
	C352.133911,255.798187 351.157257,263.391388 349.196136,271.054443 
	C346.682373,280.876923 341.614441,287.991882 330.349976,288.623657 
	C326.386169,288.845947 322.451385,289.699921 318.520111,290.364594 
	C309.026825,291.969574 299.324310,292.462463 290.123993,295.634827 
	C284.444366,297.593201 279.862701,301.023651 278.582611,307.072662 
	C276.038361,319.095825 278.702606,330.414520 284.853699,341.674683 
z"/>
<path fill="#000000" opacity="1.000000" stroke="none" 
	d="
M369.985962,316.355347 
	C366.498444,316.357391 363.843292,317.947937 360.952881,318.662567 
	C353.497223,320.505859 348.089355,316.442719 347.644348,308.824524 
	C347.199432,301.207520 349.450928,294.336823 353.382416,288.019623 
	C356.723785,282.650696 359.921570,277.227631 362.662628,271.527771 
	C364.170532,268.392090 366.321655,265.792389 370.144623,265.829651 
	C373.784943,265.865112 375.669250,268.520660 377.153778,271.423187 
	C380.104462,277.192139 383.169373,282.874146 386.695587,288.337769 
	C390.548889,294.308197 392.419891,301.048004 392.261627,308.201172 
	C392.076691,316.561249 386.037720,320.853485 378.031372,318.511810 
	C375.492889,317.769348 373.132812,316.389191 369.985962,316.355347 
z"/>
</svg>